<svg xmlns="http://www.w3.org/2000/svg" xmlns:xlink="http://www.w3.org/1999/xlink" viewBox="0 0 87 87"><defs><style>.cls-1{fill:url(#linear-gradient);}.cls-2{font-size:6px;font-family:DINCondensed-Bold, DIN Condensed;font-weight:700;}.cls-2,.cls-3{fill:#fbcb9a;}.cls-3{font-size:24px;font-family:Arial-Black, Arial Black;font-weight:800;}</style><linearGradient id="linear-gradient" x1="5.82" y1="21.75" x2="81.18" y2="65.25" gradientUnits="userSpaceOnUse"><stop offset="0" stop-color="#793710"/><stop offset="0" stop-color="#58140b"/><stop offset="0.24" stop-color="#5c190d"/><stop offset="0.39" stop-color="#6a2b12"/><stop offset="0.72" stop-color="#6d3114"/><stop offset="0.85" stop-color="#813a16"/><stop offset="0.94" stop-color="#974518"/><stop offset="1" stop-color="#d86613"/></linearGradient></defs><g id="_87mm" data-name="87mm"><circle class="cls-1" cx="43.5" cy="43.5" r="43.5"/></g><g id="Layer_3" data-name="Layer 3"><text class="cls-2" transform="translate(69.82 20.4) rotate(50.68)">У</text><text class="cls-2" transform="translate(71.4 22.33) rotate(54.75)">С</text><text class="cls-2" transform="matrix(0.52, 0.86, -0.86, 0.52, 72.82, 24.33)">Л</text><text class="cls-2" transform="translate(74.23 26.69) rotate(63.27)">У</text><text class="cls-2" transform="translate(75.36 28.96) rotate(67.12)">Г</text><text class="cls-2" transform="translate(76.19 30.91) rotate(71.08)">И</text><text class="cls-2" transform="matrix(0.27, 0.96, -0.96, 0.27, 77.05, 33.49)"> </text><text class="cls-2" transform="translate(77.39 34.65) rotate(77.09)">Г</text><text class="cls-2" transform="matrix(0.15, 0.99, -0.99, 0.15, 77.87, 36.74)">И</text><text class="cls-2" transform="translate(78.29 39.38) rotate(85.6)">Д</text><text class="cls-2" transform="matrix(0.02, 1, -1, 0.02, 78.48, 42.25)">Р</text><text class="cls-2" transform="translate(78.5 44.78) rotate(94.12)">О</text><text class="cls-2" transform="translate(78.31 47.4) rotate(98.33)">А</text><text class="cls-2" transform="translate(77.94 49.9) rotate(102.46)">Б</text><text class="cls-2" transform="matrix(-0.29, 0.96, -0.96, -0.29, 77.4, 52.33)">Р</text><text class="cls-2" transform="translate(76.75 54.54) rotate(110.37)">А</text><text class="cls-2" transform="translate(75.89 56.86) rotate(114.55)">З</text><text class="cls-2" transform="translate(74.79 59.25) rotate(118.9)">И</text><text class="cls-2" transform="translate(73.49 61.61) rotate(123.27)">В</text><text class="cls-2" transform="matrix(-0.61, 0.79, -0.79, -0.61, 72.04, 63.81)">Н</text><text class="cls-2" transform="matrix(-0.67, 0.75, -0.75, -0.67, 70.44, 65.89)">О</text><text class="cls-2" transform="matrix(-0.72, 0.69, -0.69, -0.72, 68.67, 67.86)">Й</text><text class="cls-2" transform="translate(66.71 69.71) rotate(139.36)"> </text><text class="cls-2" transform="matrix(-0.79, 0.61, -0.61, -0.79, 65.79, 70.52)">Р</text><text class="cls-2" transform="translate(63.78 72.05) rotate(146.39)">Е</text><text class="cls-2" transform="translate(61.88 73.32) rotate(150.41)">З</text><text class="cls-2" transform="translate(59.58 74.62) rotate(154.67)">К</text><text class="cls-2" transform="matrix(-0.93, 0.36, -0.36, -0.93, 57.26, 75.72)">И</text><text class="cls-2" transform="translate(54.72 76.67) rotate(162.24)"> </text><text class="cls-2" transform="matrix(-0.97, 0.25, -0.25, -0.97, 53.58, 77.05)">Р</text><text class="cls-2" transform="translate(51.35 77.64) rotate(169.11)">А</text><text class="cls-2" transform="translate(48.93 78.11) rotate(173.25)">З</text><text class="cls-2" transform="matrix(-1, 0.04, -0.04, -1, 46.37, 78.41)">Л</text><text class="cls-2" transform="matrix(-1, -0.03, 0.03, -1, 43.59, 78.52)">И</text><text class="cls-2" transform="translate(40.92 78.43) rotate(-173.84)">Ч</text><text class="cls-2" transform="translate(38.4 78.16) rotate(-169.6)">Н</text><text class="cls-2" transform="translate(35.83 77.7) rotate(-164.59)">Ы</text><text class="cls-2" transform="matrix(-0.94, -0.35, 0.35, -0.94, 32.46, 76.74)">Х</text><text class="cls-2" transform="translate(30.19 75.89) rotate(-156.72)"> </text><text class="cls-2" transform="translate(29.05 75.43) rotate(-152.88)">М</text><text class="cls-2" transform="matrix(-0.85, -0.53, 0.53, -0.85, 26.05, 73.87)">А</text><text class="cls-2" transform="translate(24.12 72.66) rotate(-144.71)">Т</text><text class="cls-2" transform="matrix(-0.78, -0.63, 0.63, -0.78, 22.43, 71.47)">Е</text><text class="cls-2" transform="translate(20.63 70.02) rotate(-137.22)">Р</text><text class="cls-2" transform="translate(18.79 68.32) rotate(-132.99)">И</text><text class="cls-2" transform="translate(16.96 66.35) rotate(-128.76)">А</text><text class="cls-2" transform="matrix(-0.56, -0.83, 0.83, -0.56, 15.34, 64.33)">Л</text><text class="cls-2" transform="translate(13.77 62.03) rotate(-119.9)">О</text><text class="cls-2" transform="translate(12.47 59.75) rotate(-115.6)">В</text><text class="cls-2" transform="translate(11.35 57.37) rotate(-112.44)"> </text><text class="cls-2" transform="translate(10.87 56.25) rotate(-109.32)">К</text><text class="cls-2" transform="translate(10.02 53.82) rotate(-105.1)">Р</text><text class="cls-2" transform="translate(9.42 51.59) rotate(-101.3)">А</text><text class="cls-2" transform="translate(8.93 49.14) rotate(-97.2)">С</text><text class="cls-2" transform="translate(8.62 46.63) rotate(-93.04)">К</text><text class="cls-2" transform="translate(8.48 44.07) rotate(-88.87)">О</text><text class="cls-2" transform="translate(8.54 41.44) rotate(-84.61)">В</text><text class="cls-2" transform="translate(8.78 38.83) rotate(-80.32)">О</text><text class="cls-2" transform="translate(9.25 36.22) rotate(-77.14)"> </text><text class="cls-2" transform="translate(9.49 35.02) rotate(-73.3)">М</text><text class="cls-2" transform="translate(10.49 31.78) rotate(-68.35)">О</text><text class="cls-2" transform="matrix(0.42, -0.91, 0.91, 0.42, 11.49, 29.31)"> </text><text class="cls-2" transform="translate(11.98 28.23) rotate(-62.27)">1</text><text class="cls-2" transform="translate(13.07 26.17) rotate(-58.46)">4</text><text class="cls-2" transform="translate(14.28 24.19) rotate(-54.67)">0</text><text class="cls-2" transform="translate(15.62 22.31) rotate(-50.89)">0</text><text class="cls-2" transform="matrix(0.68, -0.73, 0.73, 0.68, 17.08, 20.51)">8</text><text class="cls-2" transform="translate(18.66 18.82) rotate(-43.38)">0</text><text class="cls-2" transform="translate(20.37 17.23) rotate(-40.47)"> </text><text class="cls-2" transform="translate(21.28 16.43) rotate(-37.39)">К</text><text class="cls-2" transform="translate(23.34 14.88) rotate(-34.3)"> </text><text class="cls-2" transform="translate(24.32 14.17) rotate(-30.5)">М</text><text class="cls-2" transform="matrix(0.9, -0.43, 0.43, 0.9, 27.27, 12.46)">А</text><text class="cls-2" transform="translate(29.53 11.38) rotate(-21.52)">Р</text><text class="cls-2" transform="translate(31.88 10.45) rotate(-17.32)">К</text><text class="cls-2" transform="matrix(0.97, -0.23, 0.23, 0.97, 34.33, 9.69)">С</text><text class="cls-2" transform="translate(36.72 9.13) rotate(-9.09)">А</text><text class="cls-2" transform="matrix(0.99, -0.1, 0.1, 0.99, 39.23, 8.75)"> </text><text class="cls-2" transform="translate(40.44 8.61) rotate(-3.13)">1</text><text class="cls-2" transform="matrix(1, 0.02, -0.02, 1, 42.75, 8.48)">1</text><text class="cls-2" transform="translate(45.08 8.52) rotate(4.35)">7</text><text class="cls-2" transform="matrix(0.99, 0.13, -0.13, 0.99, 47.41, 8.71)"> </text><text class="cls-2" transform="translate(48.61 8.85) rotate(10.31)">Б</text><text class="cls-2" transform="translate(51.07 9.32) rotate(13.36)"> </text><text class="cls-2" transform="translate(52.27 9.58) rotate(16.57)">О</text><text class="cls-2" transform="matrix(0.93, 0.37, -0.37, 0.93, 54.78, 10.31)">Ф</text><text class="cls-2" transform="matrix(0.89, 0.45, -0.45, 0.89, 58.13, 11.67)">И</text><text class="cls-2" transform="translate(60.51 12.88) rotate(31.11)">С</text><text class="cls-2" transform="translate(62.69 14.22) rotate(34.21)"> </text><text class="cls-2" transform="matrix(0.8, 0.6, -0.6, 0.8, 63.7, 14.89)">5</text><text class="cls-2" transform="translate(65.54 16.29) rotate(40.86)">0</text><text class="cls-2" transform="translate(67.31 17.82) rotate(44.66)">3</text><text class="cls-2" transform="translate(68.94 19.46) rotate(47.52)"> </text><text class="cls-2" transform="translate(69.77 20.37) rotate(49.53)"> </text></g><g id="Layer_8" data-name="Layer 8"><text class="cls-3" transform="translate(23.19 53.89)">WJ</text></g></svg>